<?xml version="1.0" encoding="utf-8"?>
<svg viewBox="4.354 12.319 91.186 75.298" width="91.186" height="75.298" style="enable-background:new 0 0 100 100;" xmlns="http://www.w3.org/2000/svg">
  <g transform="matrix(1, 0, 0, 1, 8.881784197001252e-16, 0)">
    <path d="M87.3,21.7H55.7l-12.3-8.5c-0.7-0.5-1.5-0.7-2.3-0.7H12.7c-4.4,0-8,3.6-8,8v59c0,4.4,3.6,8,8,8h74.6c4.4,0,8-3.6,8-8V29.7   C95.3,25.3,91.7,21.7,87.3,21.7z M87.3,79.5H12.7v-59h27.1L52.2,29c0.7,0.5,1.5,0.7,2.3,0.7h32.8V79.5z" style="fill: rgb(0, 255, 102);"/>
  </g>
</svg>