<?xml version="1.0" encoding="utf-8"?>
<svg viewBox="0 0 100 125" width="100" height="125" xmlns="http://www.w3.org/2000/svg">
  <g transform="matrix(0.9999999999999999, 0, 0, 0.9999999999999999, 0.2124040126800466, 10.424333572387695)">
    <path d="M74.625,50c0,13.578-11.047,24.625-24.625,24.625S25.375,63.578,25.375,50S36.422,25.375,50,25.375   S74.625,36.422,74.625,50z M56.184,78.908H43.815c-0.676,0-1.305,0.341-1.675,0.906c-0.369,0.565-0.428,1.279-0.156,1.897   l6.184,14.092C48.486,96.53,49.205,97,49.999,97s1.513-0.469,1.831-1.196l6.185-14.092c0.271-0.619,0.213-1.332-0.156-1.897   C57.488,79.249,56.859,78.908,56.184,78.908z M29.56,70.441l-4.373-4.373c-0.479-0.478-1.167-0.681-1.824-0.543   c-0.661,0.139-1.208,0.602-1.453,1.231l-5.592,14.337c-0.288,0.739-0.112,1.58,0.449,2.141c0.382,0.382,0.894,0.586,1.414,0.586   c0.244,0,0.491-0.044,0.727-0.137l14.338-5.592c0.629-0.246,1.092-0.792,1.23-1.453s-0.065-1.347-0.543-1.825L29.56,70.441z    M19.092,58.184c0.383,0,0.764-0.11,1.094-0.326c0.565-0.369,0.906-0.999,0.906-1.674V43.815c0-0.675-0.341-1.305-0.906-1.674   c-0.564-0.369-1.278-0.428-1.897-0.157L4.196,48.168C3.47,48.487,3,49.206,3,50s0.47,1.513,1.196,1.832l14.092,6.184   C18.545,58.128,18.819,58.184,19.092,58.184z M21.909,33.244c0.245,0.629,0.792,1.092,1.453,1.231   c0.136,0.028,0.273,0.042,0.41,0.042c0.524,0,1.035-0.207,1.414-0.586l4.373-4.373l4.372-4.373   c0.478-0.478,0.682-1.164,0.543-1.825c-0.139-0.661-0.602-1.207-1.23-1.453l-14.337-5.592c-0.74-0.289-1.58-0.112-2.141,0.449   c-0.562,0.561-0.737,1.401-0.449,2.141L21.909,33.244z M43.815,21.092h12.368c0.676,0,1.305-0.341,1.675-0.906   c0.369-0.565,0.428-1.279,0.156-1.897L51.831,4.196C51.513,3.469,50.794,3,50,3s-1.513,0.469-1.831,1.196l-6.185,14.092   c-0.271,0.618-0.213,1.332,0.156,1.897C42.511,20.751,43.14,21.092,43.815,21.092z M70.44,29.559l4.373,4.373   c0.379,0.379,0.889,0.586,1.414,0.586c0.137,0,0.274-0.014,0.41-0.042c0.661-0.139,1.208-0.602,1.453-1.231l5.592-14.337   c0.288-0.739,0.112-1.58-0.449-2.141c-0.561-0.562-1.403-0.737-2.141-0.449l-14.337,5.592c-0.629,0.246-1.092,0.792-1.23,1.453   s0.065,1.347,0.543,1.825L70.44,29.559z M95.804,48.168l-14.093-6.184c-0.62-0.271-1.333-0.213-1.897,0.157   c-0.565,0.369-0.906,0.999-0.906,1.674v12.368c0,0.675,0.341,1.305,0.906,1.674c0.33,0.216,0.711,0.326,1.094,0.326   c0.272,0,0.547-0.056,0.804-0.168l14.093-6.184C96.53,51.513,97,50.794,97,50S96.53,48.488,95.804,48.168z M78.091,66.755   c-0.245-0.629-0.792-1.092-1.453-1.231c-0.657-0.137-1.346,0.066-1.824,0.543l-8.745,8.746c-0.478,0.478-0.682,1.164-0.543,1.825   s0.602,1.207,1.23,1.453l14.338,5.592c0.236,0.092,0.482,0.137,0.727,0.137c0.521,0,1.032-0.204,1.414-0.586   c0.562-0.562,0.737-1.401,0.449-2.141L78.091,66.755z" style="fill: rgb(255, 255, 255);"/>
  </g>
</svg>